<svg id="paid" xmlns="http://www.w3.org/2000/svg" xmlns:xlink="http://www.w3.org/1999/xlink" width="60" height="60" viewBox="0 0 60 60">
  <defs>
    <clipPath id="clip-path">
      <circle id="Mask" cx="30" cy="30" r="30" transform="translate(0 0)" fill="#d8d8d8"/>
    </clipPath>
  </defs>
  <g id="Group_11" data-name="Group 11">
    <g id="_8ffc3240404403.577dfbca1eefe" data-name="8ffc3240404403.577dfbca1eefe">
      <circle id="Mask-2" data-name="Mask" cx="30" cy="30" r="30" transform="translate(0 0)" fill="#d8d8d8"/>
    </g>
    <circle id="Oval" cx="26.5" cy="26.5" r="26.5" transform="translate(3 4)" fill="#f7b500"/>
  </g>
  <g id="Group_7" data-name="Group 7" transform="translate(20 17)">
    <path id="G" d="M10.341,20a13.406,13.406,0,0,0,3.433-.409,13.827,13.827,0,0,0,3.13-1.283h0V12.454a5.057,5.057,0,0,1,.276-2.059,1.529,1.529,0,0,1,1.475-.733H19V9.126H11.761v.536a3.75,3.75,0,0,1,1.579.233,1.46,1.46,0,0,1,.662.677,5.222,5.222,0,0,1,.214,1.883h0v5.529a7.875,7.875,0,0,1-1.861.79,7.438,7.438,0,0,1-2,.268,6.4,6.4,0,0,1-3.44-1.051,7.384,7.384,0,0,1-2.709-3.307A11.844,11.844,0,0,1,3.171,9.69,10.567,10.567,0,0,1,4.729,3.879,6.062,6.062,0,0,1,10.162.987a5.839,5.839,0,0,1,4.288,1.65,8.3,8.3,0,0,1,1.889,3.4h.483L16.339,0h-.51A1.919,1.919,0,0,1,15.6.966a.548.548,0,0,1-.448.247,3.748,3.748,0,0,1-1.034-.3A16.667,16.667,0,0,0,11.754.169,9.353,9.353,0,0,0,9.9,0,9.288,9.288,0,0,0,5.046,1.227,10.266,10.266,0,0,0,1.186,5.458,10.47,10.47,0,0,0,0,10.3a9.63,9.63,0,0,0,2.11,6.15Q4.922,20,10.341,20Z" transform="translate(0 3)" fill="#091324"/>
    <path id="Line_3" data-name="Line 3" d="M.5.435V26.565" transform="translate(6)" fill="none" stroke="#091324" stroke-linecap="square" stroke-miterlimit="10" stroke-width="3"/>
    <path id="Line_3_Copy" data-name="Line 3 Copy" d="M.5.435V26.565" transform="translate(11)" fill="none" stroke="#091324" stroke-linecap="square" stroke-miterlimit="10" stroke-width="3"/>
  </g>
</svg>
